<?xml version="1.0" encoding="UTF-8" standalone="no"?>
<!DOCTYPE svg PUBLIC "-//W3C//DTD SVG 1.1//EN" "http://www.w3.org/Graphics/SVG/1.1/DTD/svg11.dtd">
<svg width="100%" height="100%" viewBox="0 0 522 188" version="1.1" xmlns="http://www.w3.org/2000/svg" xmlns:xlink="http://www.w3.org/1999/xlink" xml:space="preserve" xmlns:serif="http://www.serif.com/" style="fill-rule:evenodd;clip-rule:evenodd;stroke-linejoin:round;stroke-miterlimit:2;">
    <g transform="matrix(1,0,0,1,-676.658,-731.472)">
        <path d="M1198.34,733.247C1198.34,732.268 1197.55,731.472 1196.57,731.472L678.433,731.472C677.453,731.472 676.658,732.268 676.658,733.247L676.658,916.753C676.658,917.732 677.453,918.528 678.433,918.528L1196.57,918.528C1197.55,918.528 1198.34,917.732 1198.34,916.753L1198.34,733.247ZM922.033,850.935L922.033,835.514L881.379,835.514L881.379,900L922.033,900L922.033,884.579L897.266,884.579L897.266,875.234L914.089,875.234L914.089,860.28L897.266,860.28L897.266,850.935L922.033,850.935ZM699.696,900L720.537,900C731.379,900 740.257,892.056 740.257,880.187C740.257,874.673 738.388,869.533 734.556,866.262C731.098,863.271 725.958,861.776 719.603,859.907C716.706,859.065 715.397,857.29 715.397,854.953C715.397,852.71 716.612,850.935 719.883,850.935L732.313,850.935L732.313,835.514L723.621,835.514C717.173,835.514 715.397,835.701 713.808,836.075C704.463,838.037 699.509,845.701 699.509,854.86C699.509,860.093 701.098,864.673 704.556,868.224C707.734,871.495 711.565,872.71 719.977,875.514C722.22,876.262 724.369,877.944 724.369,880.467C724.369,882.71 722.593,884.579 718.668,884.579L699.696,884.579L699.696,900ZM788.949,900L809.79,900C820.631,900 829.509,892.056 829.509,880.187C829.509,874.673 827.64,869.533 823.808,866.262C820.35,863.271 815.21,861.776 808.855,859.907C805.958,859.065 804.65,857.29 804.65,854.953C804.65,852.71 805.864,850.935 809.136,850.935L821.565,850.935L821.565,835.514L812.874,835.514C806.425,835.514 804.65,835.701 803.061,836.075C793.715,838.037 788.762,845.701 788.762,854.86C788.762,860.093 790.35,864.673 793.808,868.224C796.986,871.495 800.818,872.71 809.229,875.514C811.472,876.262 813.621,877.944 813.621,880.467C813.621,882.71 811.846,884.579 807.921,884.579L788.949,884.579L788.949,900ZM929.509,900L945.397,900L945.397,851.402C951.472,851.682 958.481,855.981 958.481,864.953L958.481,900L973.061,900L973.061,864.953C973.061,855.981 980.07,851.682 986.145,851.402L986.145,900L1002.03,900L1002.03,835.514L986.145,835.514C977.453,835.514 969.042,840.187 965.771,844.86C962.5,840.187 954.089,835.514 945.397,835.514L929.509,835.514L929.509,900ZM873.902,835.514L829.042,835.514L829.042,850.935L843.528,850.935L843.528,900L859.416,900L859.416,850.935L873.902,850.935L873.902,835.514ZM755.678,900L771.565,900L771.565,868.224L788.855,835.514L772.033,835.514L763.621,851.402L755.21,835.514L738.388,835.514L755.678,868.224L755.678,900ZM990.818,817.29C1009.7,817.29 1024.65,802.336 1024.65,783.551C1024.65,764.86 1009.7,750 990.818,750C972.033,750 957.173,764.86 957.173,783.551C957.173,802.336 972.033,817.29 990.818,817.29ZM938.668,800.467L938.668,751.402L922.78,751.402L922.78,815.888L954.556,815.888L954.556,800.467L938.668,800.467ZM914.369,815.888L915.304,815.888L915.304,800.467L914.369,800.467C909.042,800.467 905.304,799.439 902.313,797.383C898.201,794.579 895.21,789.252 895.21,783.645C895.21,778.037 898.201,772.71 902.313,769.907C905.304,767.85 909.042,766.822 914.369,766.822L915.304,766.822L915.304,751.402L914.369,751.402C909.229,751.402 906.051,751.776 903.154,752.523C889.509,755.981 879.322,768.598 879.322,783.645C879.322,798.505 889.416,811.215 903.061,814.766C906.051,815.514 909.416,815.888 914.369,815.888ZM1117.55,766.822L1117.55,751.402L1076.89,751.402L1076.89,815.888L1117.55,815.888L1117.55,800.467L1092.78,800.467L1092.78,791.121L1109.6,791.121L1109.6,776.168L1092.78,776.168L1092.78,766.822L1117.55,766.822ZM850.724,766.822L850.724,751.402L810.07,751.402L810.07,815.888L850.724,815.888L850.724,800.467L825.958,800.467L825.958,791.121L842.78,791.121L842.78,776.168L825.958,776.168L825.958,766.822L850.724,766.822ZM1029.79,815.888L1050.63,815.888C1061.47,815.888 1070.35,807.944 1070.35,796.075C1070.35,790.561 1068.48,785.421 1064.65,782.15C1061.19,779.159 1056.05,777.664 1049.7,775.794C1046.8,774.953 1045.49,773.178 1045.49,770.841C1045.49,768.598 1046.71,766.822 1049.98,766.822L1062.41,766.822L1062.41,751.402L1053.71,751.402C1047.27,751.402 1045.49,751.589 1043.9,751.963C1034.56,753.925 1029.6,761.589 1029.6,770.748C1029.6,775.981 1031.19,780.561 1034.65,784.112C1037.83,787.383 1041.66,788.598 1050.07,791.402C1052.31,792.15 1054.46,793.832 1054.46,796.355C1054.46,798.598 1052.69,800.467 1048.76,800.467L1029.79,800.467L1029.79,815.888ZM744.65,751.402L699.79,751.402L699.79,766.822L714.276,766.822L714.276,815.888L730.164,815.888L730.164,766.822L744.65,766.822L744.65,751.402ZM786.706,751.402L786.706,776.168L768.014,776.168L768.014,751.402L752.126,751.402L752.126,815.888L768.014,815.888L768.014,791.121L786.706,791.121L786.706,815.888L802.593,815.888L802.593,751.402L786.706,751.402ZM1125.02,815.888L1136.24,815.888C1144.84,815.888 1149.98,815.14 1154.09,813.738C1165.86,809.72 1175.49,798.505 1175.49,783.738C1175.49,766.542 1162.41,754.393 1149.23,752.15C1146.61,751.682 1142.31,751.402 1136.24,751.402L1125.02,751.402L1125.02,815.888ZM990.911,801.776C981.005,801.776 973.061,793.645 973.061,783.738C973.061,773.925 981.005,765.514 990.911,765.514C1000.63,765.514 1008.76,773.925 1008.76,783.738C1008.76,793.645 1000.63,801.776 990.911,801.776ZM1140.91,800.467L1140.91,766.822C1153.06,766.822 1159.6,774.766 1159.6,783.645C1159.6,792.523 1153.06,800.467 1140.91,800.467Z" style="fill:rgb(23,23,23);"/>
    </g>
</svg>
